<mxfile host="app.diagrams.net" modified="2024-04-03T22:39:17.342Z" agent="Mozilla/5.0 (X11; Linux x86_64; rv:124.0) Gecko/20100101 Firefox/124.0" version="24.2.2" etag="lDrHInCaTdUd3GeZEPDi" type="github">
  <diagram name="Page-1" id="8D8pK21OQEfpdxgfMbMI">
    <mxGraphModel>
      <root>
        <mxCell id="0" />
        <mxCell id="1" parent="0" />
      </root>
    </mxGraphModel>
  </diagram>
</mxfile>
